<svg width="40" height="40" viewBox="0 0 40 40" fill="none" xmlns="http://www.w3.org/2000/svg">
<path d="M23.2249 39.7396C23.0582 39.7668 22.891 39.7918 22.7231 39.8147C22.891 39.7918 23.0582 39.7668 23.2249 39.7396Z" fill="black"/>
<path d="M23.6252 39.6713C23.5455 39.6859 23.4659 39.6993 23.3862 39.7131C23.4659 39.6993 23.5455 39.6859 23.6252 39.6713Z" fill="black"/>
<path d="M22.2761 39.8704C22.0811 39.8923 21.8848 39.9119 21.688 39.9283C21.8848 39.9119 22.0811 39.8923 22.2761 39.8704Z" fill="black"/>
<path d="M22.6604 39.8233C22.5667 39.8358 22.4724 39.8474 22.3784 39.8584C22.4724 39.8474 22.5667 39.8358 22.6604 39.8233Z" fill="black"/>
<path d="M24.1692 39.5632C24.099 39.5782 24.0285 39.5931 23.958 39.6075C24.0285 39.5931 24.099 39.5782 24.1692 39.5632Z" fill="black"/>
<path d="M25.5204 39.2276C25.4636 39.2438 25.4069 39.259 25.3501 39.2749C25.4069 39.259 25.4636 39.2438 25.5204 39.2276Z" fill="black"/>
<path d="M25.1118 39.3392C25.0502 39.3554 24.9882 39.3719 24.9263 39.3875C24.9882 39.3719 25.0502 39.3557 25.1118 39.3392Z" fill="black"/>
<path d="M24.5775 39.473C24.5122 39.4882 24.4463 39.5026 24.3804 39.5172C24.4463 39.5026 24.5122 39.4882 24.5775 39.473Z" fill="black"/>
<path d="M21.6819 39.929C21.5766 39.9378 21.4713 39.9457 21.3657 39.9528C21.4713 39.9457 21.5766 39.9378 21.6819 39.929Z" fill="black"/>
<path d="M40 20C40 8.95599 31.044 0 20 0C8.95599 0 0 8.95599 0 20C0 31.044 8.95599 40 20 40C20.1175 40 20.2344 39.9976 20.3516 39.9954V24.4263H16.0547V19.4186H20.3516V15.7336C20.3516 11.46 22.9605 9.13391 26.7728 9.13391C28.5983 9.13391 30.1675 9.27002 30.625 9.33075V13.7973H27.9962C25.9222 13.7973 25.5206 14.783 25.5206 16.2292V19.4186H30.4797L29.8334 24.4263H25.5206V39.2273C33.8803 36.8307 40 29.129 40 20Z" fill="black"/>
<path d="M21.3217 39.9554C21.1135 39.9689 20.9045 39.9796 20.6948 39.9866C20.9045 39.9796 21.1135 39.9689 21.3217 39.9554Z" fill="black"/>
<path d="M20.6836 39.9872C20.5731 39.9909 20.4623 39.9937 20.3516 39.9955C20.4623 39.9937 20.5731 39.9909 20.6836 39.9872Z" fill="black"/>
</svg>
