<svg width="45" height="45" viewBox="0 0 45 45" fill="none" xmlns="http://www.w3.org/2000/svg">
<path d="M44.4535 22.1866C44.4535 17.7985 43.1499 13.5091 40.7076 9.86051C38.2653 6.21193 34.7939 3.36823 30.7325 1.68897C26.6711 0.00971829 22.2021 -0.429794 17.8905 0.426284C13.579 1.28236 9.61853 3.3954 6.51007 6.49826C3.40161 9.60112 1.28471 13.5545 0.427089 17.8583C-0.430534 22.1621 0.00963384 26.623 1.69192 30.6771C3.37421 34.7312 6.22306 38.1963 9.87823 40.6343C13.5334 43.0722 17.8307 44.3734 22.2267 44.3734C25.1468 44.3777 28.039 43.8067 30.7376 42.6933C33.4363 41.5798 35.8882 39.9457 37.953 37.8846C40.0178 35.8235 41.6549 33.3761 42.7703 30.6823C43.8858 27.9886 44.4578 25.1014 44.4535 22.1866ZM18.2272 26.2443H14.949V24.5428C14.5534 25.1807 13.997 25.7037 13.3354 26.0598C12.6738 26.4158 11.9302 26.5924 11.1789 26.5717C7.60561 26.5717 6.6877 24.5756 6.6877 21.5323V14.0057H9.96598V20.9106C9.96598 22.9394 10.5561 23.9211 12.1296 23.9211C13.7032 23.9211 14.7523 22.9066 14.7523 20.4196V13.8749H18.0305L18.2272 26.2443ZM18.6862 22.383H19.7025V30.0076H18.6862V22.383ZM30.8486 15.5111C30.8953 16.3385 30.7676 17.1665 30.4737 17.9416C30.1797 18.7166 29.7261 19.4215 29.1421 20.0106C28.5581 20.5997 27.8568 21.06 27.0835 21.3615C26.3102 21.6631 25.482 21.7991 24.6527 21.7612C23.935 21.8238 23.212 21.7438 22.5256 21.5253C21.8392 21.3069 21.203 20.9545 20.6541 20.4887C20.1052 20.023 19.6544 19.453 19.3278 18.812C19.0012 18.171 18.8054 17.4717 18.7518 16.7546H22.03C22.0427 17.0941 22.1223 17.4278 22.2643 17.7366C22.4063 18.0455 22.6079 18.3234 22.8576 18.5543C23.1073 18.7853 23.4001 18.9649 23.7194 19.0828C24.0386 19.2007 24.3781 19.2547 24.7182 19.2416C26.4229 19.2416 27.1769 17.8671 27.4064 16.4272H22.948V14.0057H27.3736C27.0458 12.6313 26.259 11.3878 24.6527 11.3878C24.0368 11.3423 23.4275 11.5395 22.9556 11.9371C22.4837 12.3347 22.1867 12.9013 22.1284 13.515H18.8501C18.9152 12.8285 19.1172 12.1618 19.4442 11.5544C19.7712 10.947 20.2167 10.4111 20.7543 9.97815C21.2919 9.54517 21.9109 9.22387 22.5747 9.03323C23.2386 8.8426 23.9339 8.78643 24.6199 8.86805C25.4758 8.83747 26.3286 8.98833 27.1219 9.31046C27.9153 9.63258 28.6313 10.1188 29.2229 10.7371C29.8144 11.3554 30.268 12.0917 30.5539 12.8976C30.8398 13.7035 30.9514 14.5607 30.8814 15.4128L30.8486 15.5111ZM35.3726 34.5563H32.0944V25.8844L29.4389 34.5563H26.2262L23.5708 26.0154V34.5563H20.2925V22.2849H25.3739L27.9637 30.924L30.3569 22.2849H35.4382L35.3726 34.5563Z" fill="black"/>
</svg>
