<svg width="84" height="15" viewBox="0 0 84 15" fill="none" xmlns="http://www.w3.org/2000/svg">
<mask id="path-1-inside-1" fill="white">
<path fill-rule="evenodd" clip-rule="evenodd" d="M6.54029 12.7901L11.1089 0H13.0566L7.62233 14.6886H5.45826L0 0H1.97171L6.54029 12.7901ZM39.6679 0L34.2734 14.6886H36.2069L37.6152 10.7416H43.9883L45.3966 14.6886H47.33L41.8162 0H39.6679ZM40.742 1.89855L43.3438 9.39274H38.1403L40.742 1.89855ZM77.1332 1.3832C77.6588 1.33349 78.189 1.39174 78.6914 1.55437C79.1938 1.71701 79.6578 1.98062 80.0551 2.32909C80.4524 2.67757 80.7747 3.10365 81.0022 3.58118C81.2296 4.05872 81.3576 4.57763 81.3782 5.10642H83.2354C83.1992 4.36058 83.0082 3.63064 82.6745 2.96303C82.3408 2.29542 81.8718 1.70486 81.2974 1.22929C80.7231 0.753713 80.0561 0.403521 79.3391 0.201053C78.622 -0.00141412 77.8707 -0.0516665 77.1332 0.0534881C72.7676 0.0534881 70.5728 3.12402 70.5728 7.50007C70.5728 11.8761 72.7676 14.9465 77.1332 14.9465C77.8707 15.0517 78.622 15.0014 79.3391 14.7989C80.0561 14.5965 80.7231 14.2463 81.2974 13.7707C81.8718 13.2951 82.3408 12.7047 82.6745 12.0371C83.0082 11.3695 83.1992 10.6394 83.2354 9.89358H81.3782C81.3576 10.4224 81.2296 10.9414 81.0022 11.419C80.7747 11.8965 80.4524 12.3224 80.0551 12.6709C79.6578 13.0194 79.1938 13.283 78.6914 13.4456C78.189 13.6083 77.6588 13.6665 77.1332 13.6168C74.4077 13.6168 72.5505 11.5376 72.5505 7.50007C72.5505 3.4625 74.4077 1.3832 77.1332 1.3832ZM18.3551 8.1604H13.0566V8.67211V9.1604H18.3551H34.2735V8.67211V8.1604H18.3551ZM47.3301 8.1604H57.6943H66.9149V8.66047V9.1604H57.6943H47.3301V8.66047V8.1604Z"/>
</mask>
<path fill-rule="evenodd" clip-rule="evenodd" d="M6.54029 12.7901L11.1089 0H13.0566L7.62233 14.6886H5.45826L0 0H1.97171L6.54029 12.7901ZM39.6679 0L34.2734 14.6886H36.2069L37.6152 10.7416H43.9883L45.3966 14.6886H47.33L41.8162 0H39.6679ZM40.742 1.89855L43.3438 9.39274H38.1403L40.742 1.89855ZM77.1332 1.3832C77.6588 1.33349 78.189 1.39174 78.6914 1.55437C79.1938 1.71701 79.6578 1.98062 80.0551 2.32909C80.4524 2.67757 80.7747 3.10365 81.0022 3.58118C81.2296 4.05872 81.3576 4.57763 81.3782 5.10642H83.2354C83.1992 4.36058 83.0082 3.63064 82.6745 2.96303C82.3408 2.29542 81.8718 1.70486 81.2974 1.22929C80.7231 0.753713 80.0561 0.403521 79.3391 0.201053C78.622 -0.00141412 77.8707 -0.0516665 77.1332 0.0534881C72.7676 0.0534881 70.5728 3.12402 70.5728 7.50007C70.5728 11.8761 72.7676 14.9465 77.1332 14.9465C77.8707 15.0517 78.622 15.0014 79.3391 14.7989C80.0561 14.5965 80.7231 14.2463 81.2974 13.7707C81.8718 13.2951 82.3408 12.7047 82.6745 12.0371C83.0082 11.3695 83.1992 10.6394 83.2354 9.89358H81.3782C81.3576 10.4224 81.2296 10.9414 81.0022 11.419C80.7747 11.8965 80.4524 12.3224 80.0551 12.6709C79.6578 13.0194 79.1938 13.283 78.6914 13.4456C78.189 13.6083 77.6588 13.6665 77.1332 13.6168C74.4077 13.6168 72.5505 11.5376 72.5505 7.50007C72.5505 3.4625 74.4077 1.3832 77.1332 1.3832ZM18.3551 8.1604H13.0566V8.67211V9.1604H18.3551H34.2735V8.67211V8.1604H18.3551ZM47.3301 8.1604H57.6943H66.9149V8.66047V9.1604H57.6943H47.3301V8.66047V8.1604Z" fill="black"/>
<path d="M11.1089 0V-0.352775H10.8603L10.7767 -0.118668L11.1089 0ZM6.54029 12.7901L6.20807 12.9087L6.54028 13.8388L6.8725 12.9087L6.54029 12.7901ZM13.0566 0L13.3874 0.122405L13.5632 -0.352775H13.0566V0ZM7.62233 14.6886V15.0414H7.86796L7.95319 14.811L7.62233 14.6886ZM5.45826 14.6886L5.12757 14.8115L5.213 15.0414H5.45826V14.6886ZM0 0V-0.352775H-0.507435L-0.330682 0.122881L0 0ZM1.97171 0L2.30393 -0.118667L2.2203 -0.352775H1.97171V0ZM34.2734 14.6886L33.9423 14.567L33.7681 15.0414H34.2734V14.6886ZM39.6679 0V-0.352775H39.4217L39.3368 -0.121617L39.6679 0ZM36.2069 14.6886V15.0414H36.4555L36.5391 14.8072L36.2069 14.6886ZM37.6152 10.7416V10.3889H37.3665L37.2829 10.6231L37.6152 10.7416ZM43.9883 10.7416L44.3205 10.6231L44.237 10.3889H43.9883V10.7416ZM45.3966 14.6886L45.0643 14.8072L45.1479 15.0414H45.3966V14.6886ZM47.33 14.6886V15.0414H47.8392L47.6603 14.5646L47.33 14.6886ZM41.8162 0L42.1464 -0.123978L42.0605 -0.352775H41.8162V0ZM43.3438 9.39274V9.74552H43.8397L43.6771 9.27704L43.3438 9.39274ZM40.742 1.89855L41.0753 1.78285L40.742 0.822914L40.4088 1.78285L40.742 1.89855ZM38.1403 9.39274L37.807 9.27704L37.6444 9.74552H38.1403V9.39274ZM77.1332 1.3832V1.73597H77.1499L77.1664 1.73441L77.1332 1.3832ZM80.0551 2.32909L80.2877 2.06388L80.2877 2.06388L80.0551 2.32909ZM81.0022 3.58118L81.3206 3.42946L81.3206 3.42946L81.0022 3.58118ZM81.3782 5.10642L81.0257 5.12017L81.039 5.45919H81.3782V5.10642ZM83.2354 5.10642V5.45919H83.6057L83.5878 5.08931L83.2354 5.10642ZM82.6745 2.96303L82.3589 3.12076L82.3589 3.12076L82.6745 2.96303ZM81.2974 1.22929L81.0724 1.501L81.0724 1.501L81.2974 1.22929ZM79.3391 0.201053L79.435 -0.138447L79.435 -0.138447L79.3391 0.201053ZM77.1332 0.0534881V0.406263H77.1582L77.183 0.402731L77.1332 0.0534881ZM77.1332 14.9465L77.183 14.5973L77.1582 14.5937H77.1332V14.9465ZM79.3391 14.7989L79.435 15.1384L79.435 15.1384L79.3391 14.7989ZM81.2974 13.7707L81.0724 13.499L81.0724 13.499L81.2974 13.7707ZM82.6745 12.0371L82.3589 11.8794L82.3589 11.8794L82.6745 12.0371ZM83.2354 9.89358L83.5878 9.91068L83.6057 9.54081H83.2354V9.89358ZM81.3782 9.89358V9.54081H81.039L81.0257 9.87983L81.3782 9.89358ZM81.0022 11.419L81.3206 11.5707L81.3206 11.5707L81.0022 11.419ZM80.0551 12.6709L80.2877 12.9361L80.2877 12.9361L80.0551 12.6709ZM77.1332 13.6168L77.1664 13.2656L77.1499 13.264H77.1332V13.6168ZM13.0566 8.1604V7.80762H12.7039V8.1604H13.0566ZM13.0566 9.1604H12.7039V9.51318H13.0566V9.1604ZM34.2735 9.1604V9.51318H34.6263V9.1604H34.2735ZM34.2735 8.1604H34.6263V7.80762H34.2735V8.1604ZM47.3301 8.1604V7.80762H46.9773V8.1604H47.3301ZM66.9149 8.1604H67.2677V7.80762H66.9149V8.1604ZM66.9149 9.1604V9.51318H67.2677V9.1604H66.9149ZM47.3301 9.1604H46.9773V9.51318H47.3301V9.1604ZM10.7767 -0.118668L6.20807 12.6714L6.8725 12.9087L11.4411 0.118668L10.7767 -0.118668ZM13.0566 -0.352775H11.1089V0.352775H13.0566V-0.352775ZM7.95319 14.811L13.3874 0.122405L12.7257 -0.122405L7.29147 14.5662L7.95319 14.811ZM5.45826 15.0414H7.62233V14.3359H5.45826V15.0414ZM-0.330682 0.122881L5.12757 14.8115L5.78894 14.5657L0.330682 -0.122881L-0.330682 0.122881ZM1.97171 -0.352775H0V0.352775H1.97171V-0.352775ZM6.8725 12.6714L2.30393 -0.118667L1.63949 0.118667L6.20807 12.9087L6.8725 12.6714ZM34.6046 14.8102L39.9991 0.121617L39.3368 -0.121617L33.9423 14.567L34.6046 14.8102ZM36.2069 14.3359H34.2734V15.0414H36.2069V14.3359ZM37.2829 10.6231L35.8746 14.5701L36.5391 14.8072L37.9474 10.8602L37.2829 10.6231ZM43.9883 10.3889H37.6152V11.0944H43.9883V10.3889ZM45.7288 14.5701L44.3205 10.6231L43.656 10.8602L45.0643 14.8072L45.7288 14.5701ZM47.33 14.3359H45.3966V15.0414H47.33V14.3359ZM41.4859 0.123978L46.9997 14.8126L47.6603 14.5646L42.1464 -0.123978L41.4859 0.123978ZM39.6679 0.352775H41.8162V-0.352775H39.6679V0.352775ZM43.6771 9.27704L41.0753 1.78285L40.4088 2.01425L43.0105 9.50844L43.6771 9.27704ZM38.1403 9.74552H43.3438V9.03997H38.1403V9.74552ZM40.4088 1.78285L37.807 9.27704L38.4735 9.50844L41.0753 2.01425L40.4088 1.78285ZM78.8 1.21875C78.2519 1.04131 77.6735 0.977756 77.1 1.03199L77.1664 1.73441C77.6442 1.68923 78.1261 1.74217 78.5827 1.89L78.8 1.21875ZM80.2877 2.06388C79.8544 1.68376 79.3481 1.39618 78.8 1.21875L78.5827 1.89C79.0394 2.03784 79.4613 2.27747 79.8225 2.59431L80.2877 2.06388ZM81.3206 3.42946C81.0725 2.90871 80.7211 2.444 80.2877 2.06388L79.8225 2.59431C80.1837 2.91113 80.4768 3.29858 80.6837 3.73291L81.3206 3.42946ZM81.7307 5.09267C81.7083 4.51606 81.5687 3.95021 81.3206 3.42946L80.6837 3.7329C80.8906 4.16723 81.007 4.63919 81.0257 5.12017L81.7307 5.09267ZM83.2354 4.75364H81.3782V5.45919H83.2354V4.75364ZM82.3589 3.12076C82.6707 3.74455 82.8492 4.42658 82.8831 5.12352L83.5878 5.08931C83.5492 4.29457 83.3456 3.51674 82.99 2.8053L82.3589 3.12076ZM81.0724 1.501C81.6089 1.94525 82.0471 2.49697 82.3589 3.12076L82.99 2.80531C82.6344 2.09387 82.1346 1.46448 81.5224 0.957575L81.0724 1.501ZM79.2432 0.540554C79.9129 0.729657 80.536 1.05675 81.0724 1.501L81.5224 0.957577C80.9103 0.450678 80.1993 0.0773843 79.435 -0.138447L79.2432 0.540554ZM77.183 0.402731C77.8718 0.304521 78.5735 0.351453 79.2432 0.540554L79.435 -0.138447C78.6706 -0.354282 77.8697 -0.407854 77.0834 -0.295755L77.183 0.402731ZM70.9255 7.50007C70.9255 5.3663 71.461 3.59398 72.487 2.36147C73.5053 1.13829 75.04 0.406263 77.1332 0.406263V-0.299287C74.8608 -0.299287 73.1153 0.503948 71.9448 1.91006C70.782 3.30682 70.22 5.2578 70.22 7.50007H70.9255ZM77.1332 14.5937C75.04 14.5937 73.5053 13.8617 72.487 12.6386C71.461 11.4061 70.9255 9.63385 70.9255 7.50007H70.22C70.22 9.74235 70.782 11.6933 71.9448 13.09C73.1153 14.4961 74.8608 15.2993 77.1332 15.2993V14.5937ZM79.2432 14.4594C78.5735 14.6485 77.8718 14.6955 77.183 14.5973L77.0834 15.2958C77.8697 15.4079 78.6706 15.3543 79.435 15.1384L79.2432 14.4594ZM81.0724 13.499C80.536 13.9433 79.9129 14.2703 79.2432 14.4594L79.435 15.1384C80.1993 14.9226 80.9103 14.5493 81.5224 14.0424L81.0724 13.499ZM82.3589 11.8794C82.0471 12.5032 81.609 13.0547 81.0724 13.499L81.5224 14.0424C82.1346 13.5355 82.6344 12.9063 82.99 12.1948L82.3589 11.8794ZM82.8831 9.87648C82.8492 10.5734 82.6707 11.2556 82.3589 11.8794L82.99 12.1948C83.3456 11.4834 83.5492 10.7054 83.5878 9.91068L82.8831 9.87648ZM81.3782 10.2464H83.2354V9.54081H81.3782V10.2464ZM81.3206 11.5707C81.5687 11.0499 81.7083 10.4839 81.7307 9.90733L81.0257 9.87983C81.007 10.3608 80.8906 10.8329 80.6837 11.2672L81.3206 11.5707ZM80.2877 12.9361C80.7211 12.556 81.0725 12.0915 81.3206 11.5707L80.6837 11.2672C80.4768 11.7015 80.1837 12.0888 79.8225 12.4057L80.2877 12.9361ZM78.8 13.7813C79.3481 13.6038 79.8544 13.3162 80.2877 12.9361L79.8225 12.4057C79.4613 12.7225 79.0394 12.9622 78.5827 13.11L78.8 13.7813ZM77.1 13.968C77.6735 14.0222 78.2519 13.9587 78.8 13.7813L78.5827 13.11C78.1261 13.2578 77.6442 13.3108 77.1664 13.2656L77.1 13.968ZM72.1978 7.50007C72.1978 9.5677 72.6728 11.1837 73.5424 12.2905C74.4203 13.4077 75.6723 13.9696 77.1332 13.9696V13.264C75.8687 13.264 74.8293 12.7863 74.0972 11.8546C73.3569 10.9124 72.9033 9.47003 72.9033 7.50007H72.1978ZM77.1332 1.03042C75.6723 1.03042 74.4203 1.59234 73.5424 2.70959C72.6728 3.81645 72.1978 5.43245 72.1978 7.50007H72.9033C72.9033 5.53012 73.3569 4.08768 74.0972 3.1455C74.8293 2.21371 75.8687 1.73597 77.1332 1.73597V1.03042ZM13.0566 8.51318H18.3551V7.80762H13.0566V8.51318ZM13.4094 8.67211V8.1604H12.7039V8.67211H13.4094ZM13.4094 9.1604V8.67211H12.7039V9.1604H13.4094ZM18.3551 8.80762H13.0566V9.51318H18.3551V8.80762ZM34.2735 8.80762H18.3551V9.51318H34.2735V8.80762ZM33.9208 8.67211V9.1604H34.6263V8.67211H33.9208ZM33.9208 8.1604V8.67211H34.6263V8.1604H33.9208ZM18.3551 8.51318H34.2735V7.80762H18.3551V8.51318ZM57.6943 7.80762H47.3301V8.51318H57.6943V7.80762ZM66.9149 7.80762H57.6943V8.51318H66.9149V7.80762ZM67.2677 8.66047V8.1604H66.5621V8.66047H67.2677ZM67.2677 9.1604V8.66047H66.5621V9.1604H67.2677ZM57.6943 9.51318H66.9149V8.80762H57.6943V9.51318ZM47.3301 9.51318H57.6943V8.80762H47.3301V9.51318ZM46.9773 8.66047V9.1604H47.6829V8.66047H46.9773ZM46.9773 8.1604V8.66047H47.6829V8.1604H46.9773Z" fill="black" mask="url(#path-1-inside-1)"/>
</svg>
